#!OML:ASF E:\Style6\Style6.ASF
:FULLY-SPECIFIED
:DEGREES
2811
root 0.919786 17.5312 -1.57477 22.4404 9.88811 0.762516
lowerback 12.9361 -1.36429 4.45904
upperback 12.8523 -1.43748 1.97345
thorax 6.39018 -0.435226 -0.295178
lowerneck 13.751 11.8784 -4.63653
upperneck 1.88243 14.6021 -10.4821
head -1.21414 7.52637 -3.36855
rclavicle 3.97569e-015 7.95139e-015
rhumerus 1.74323 -10.3165 -84.0462
rradius 38.6939
rwrist 25.7746
rhand -4.69329 9.49519
rfingers 7.12502
rthumb 21.0881 -19.3781
lclavicle 3.97569e-015 7.95139e-015
lhumerus 55.7691 -15.0358 77.4735
lradius 20.1504
lwrist -25.464
lhand 12.7478 29.8815
lfingers 7.12502
lthumb 37.7276 55.7543
rfemur -46.6825 -9.38875 18.8773
rtibia 36.231
rfoot -6.59854 -12.7032
rtoes -6.84431
lfemur -48.3828 1.75269 -22.7336
ltibia 36.1771
lfoot -6.15701 -6.04853
ltoes -16.2277
2812
root 0.92175 17.5305 -1.5733 22.4854 9.8323 0.69224
lowerback 12.9184 -1.36525 4.4723
upperback 12.9064 -1.44454 2.06078
thorax 6.46316 -0.440729 -0.209776
lowerneck 13.7 11.9004 -4.73287
upperneck 1.91959 14.625 -10.3291
head -1.21026 7.52913 -3.29839
rclavicle 1.35174e-014 -1.70955e-014
rhumerus 1.86574 -10.3456 -83.9993
rradius 38.7216
rwrist 25.8515
rhand -4.66134 9.57713
rfingers 7.12502
rthumb 21.1188 -19.2927
lclavicle 1.35174e-014 -1.70955e-014
lhumerus 55.6207 -14.9025 77.881
lradius 20.0397
lwrist -25.6984
lhand 12.6961 29.937
lfingers 7.12502
lthumb 37.6788 55.8229
rfemur -46.7624 -9.30182 18.9307
rtibia 36.2666
rfoot -6.62613 -12.7104
rtoes -6.9015
lfemur -48.4466 1.87666 -22.7188
ltibia 36.1843
lfoot -6.17621 -6.09855
ltoes -16.2464
2813
root 0.924425 17.5293 -1.57361 22.5358 9.77198 0.682619
lowerback 12.8494 -1.30301 4.57817
upperback 12.9401 -1.36263 2.07245
thorax 6.54133 -0.390728 -0.263208
lowerneck 13.8965 11.8117 -4.43383
upperneck 1.95042 14.5376 -10.3584
head -1.21442 7.49055 -3.36432
rclavicle 9.54166e-015 -1.43125e-014
rhumerus 1.87617 -10.642 -83.965
rradius 38.7577
rwrist 25.9193
rhand -4.7441 9.62519
rfingers 7.12502
rthumb 21.0393 -19.2535
lclavicle 9.54166e-015 -1.43125e-014
lhumerus 55.5327 -15.2701 77.6697
lradius 20.113
lwrist -25.3061
lhand 12.7828 30.1345
lfingers 7.12502
lthumb 37.7607 55.9984
rfemur -46.8426 -9.24199 18.9186
rtibia 36.2851
rfoot -6.5959 -12.7371
rtoes -7.11135
lfemur -48.5046 1.95835 -22.7601
ltibia 36.1888
lfoot -6.18512 -6.1267
ltoes -16.2562
2814
root 0.928406 17.5279 -1.57509 22.6195 9.72035 0.714654
lowerback 12.7376 -1.23091 4.73706
upperback 12.9434 -1.26462 2.04342
thorax 6.60816 -0.326761 -0.390854
lowerneck 14.2785 11.6931 -3.92126
upperneck 1.90224 14.4202 -10.5508
head -1.25198 7.45142 -3.53612
rclavicle 7.95139e-016 -3.26007e-014
rhumerus 1.80164 -11.0243 -83.9466
rradius 38.8486
rwrist 26.0109
rhand -4.94584 9.6374
rfingers 7.12502
rthumb 20.8454 -19.2627
lclavicle 7.95139e-016 -3.26007e-014
lhumerus 55.408 -15.6419 77.6503
lradius 20.0723
lwrist -25.1984
lhand 13.0019 30.2548
lfingers 7.12502
lthumb 37.9676 56.0628
rfemur -46.948 -9.20524 18.8597
rtibia 36.2926
rfoot -6.54371 -12.7669
rtoes -7.20185
lfemur -48.5939 2.00364 -22.8428
ltibia 36.1986
lfoot -6.16751 -6.14572
ltoes -16.1042
2815
root 0.932695 17.5275 -1.57483 22.7219 9.68798 0.756861
lowerback 12.5467 -1.23369 4.71164
upperback 13.0328 -1.28935 2.10754
thorax 6.81414 -0.339784 -0.309322
lowerneck 14.4694 11.6662 -3.76071
upperneck 1.76101 14.3783 -10.7029
head -1.31252 7.44746 -3.63375
rclavicle 2.94201e-014 -2.46493e-014
rhumerus 1.97375 -11.1307 -83.9315
rradius 38.859
rwrist 26.0825
rhand -5.12746 9.704
rfingers 7.12502
rthumb 20.6709 -19.2152
lclavicle 2.94201e-014 -2.46493e-014
lhumerus 55.2796 -15.4157 78.281
lradius 19.8869
lwrist -25.7283
lhand 13.1224 30.1824
lfingers 7.12502
lthumb 38.0815 55.9594
rfemur -47.0531 -9.19978 18.8073
rtibia 36.2867
rfoot -6.53137 -12.785
rtoes -7.04297
lfemur -48.6951 2.04705 -22.9413
ltibia 36.2094
lfoot -6.18009 -6.18981
ltoes -15.8988
2816
root 0.93709 17.527 -1.57383 22.8232 9.66748 0.739748
lowerback 12.8661 -1.28487 4.92496
upperback 12.8656 -1.31057 2.06285
thorax 6.44879 -0.340019 -0.469893
lowerneck 14.5074 11.6807 -3.75581
upperneck 1.90997 14.4085 -10.4407
head -1.28636 7.44618 -3.54342
rclavicle 1.19271e-014 1.23246e-014
rhumerus 1.79188 -11.1946 -83.9978
rradius 38.9391
rwrist 26.0655
rhand -5.15628 9.67878
rfingers 7.12502
rthumb 20.6433 -19.2434
lclavicle 1.19271e-014 1.23246e-014
lhumerus 54.9013 -15.4043 78.582
lradius 19.7571
lwrist -25.9881
lhand 13.0685 30.1793
lfingers 7.12502
lthumb 38.0306 55.9702
rfemur -47.1562 -9.15778 18.8004
rtibia 36.2833
rfoot -6.56794 -12.788
rtoes -6.54673
lfemur -48.8081 2.05904 -22.9473
ltibia 36.2221
lfoot -6.16857 -6.19879
ltoes -15.752
2817
root 0.942197 17.526 -1.57388 22.868 9.6172 0.699253
lowerback 12.5718 -1.35089 4.84868
upperback 13.0645 -1.43617 2.18718
thorax 6.83276 -0.405744 -0.290655
lowerneck 14.446 11.7339 -3.84994
upperneck 1.88464 14.4639 -10.4663
head -1.28623 7.47373 -3.53602
rclavicle -1.03368e-014 1.19271e-014
rhumerus 2.17949 -10.8219 -83.9408
rradius 38.9439
rwrist 25.8699
rhand -5.14506 9.63005
rfingers 7.12502
rthumb 20.654 -19.291
lclavicle -1.03368e-014 1.19271e-014
lhumerus 54.8752 -14.9341 78.9545
lradius 19.6149
lwrist -26.2771
lhand 13.0626 30.1501
lfingers 7.12502
lthumb 38.025 55.9425
rfemur -47.199 -9.08536 18.8016
rtibia 36.2689
rfoot -6.5727 -12.7977
rtoes -6.54444
lfemur -48.8801 2.0748 -22.9218
ltibia 36.2507
lfoot -6.17346 -6.14282
ltoes -15.9113
2818
root 0.945568 17.5243 -1.57533 22.9409 9.54126 0.768155
lowerback 13.0364 -1.4185 4.83558
upperback 12.8915 -1.48553 2.19972
thorax 6.38317 -0.442537 -0.25954
lowerneck 14.3732 11.8104 -4.01333
upperneck 2.15053 14.5667 -10.2771
head -1.20423 7.5029 -3.43181
rclavicle 7.95139e-015 -1.31198e-014
rhumerus 2.06451 -10.5802 -83.8614
rradius 38.9767
rwrist 25.7449
rhand -5.16831 9.54553
rfingers 7.12502
rthumb 20.6317 -19.378
lclavicle 7.95139e-015 -1.31198e-014
lhumerus 54.4614 -14.8283 79.0841
lradius 19.6001
lwrist -26.3419
lhand 13.1522 30.0279
lfingers 7.12502
lthumb 38.1096 55.7972
rfemur -47.2681 -9.04358 18.6944
rtibia 36.2486
rfoot -6.58287 -12.7954
rtoes -6.30513
lfemur -48.9707 2.07204 -23.0134
ltibia 36.2933
lfoot -6.18156 -6.1072
ltoes -15.8527
2819
root 0.948812 17.5227 -1.57636 23.0145 9.51614 0.729277
lowerback 12.669 -1.47642 4.72057
upperback 13.1562 -1.61325 2.37874
thorax 6.88489 -0.512972 -0.00237827
lowerneck 14.2765 11.8336 -4.13637
upperneck 2.03195 14.5734 -10.5375
head -1.2162 7.51866 -3.49776
rclavicle -3.18055e-015 -3.02153e-014
rhumerus 2.62048 -10.2317 -83.7432
rradius 38.967
rwrist 25.7047
rhand -5.0401 9.42871
rfingers 7.12502
rthumb 20.7549 -19.4814
lclavicle -3.18055e-015 -3.02153e-014
lhumerus 54.6267 -14.4563 79.2034
lradius 19.5404
lwrist -26.4261
lhand 13.072 29.9814
lfingers 7.12502
lthumb 38.0339 55.7714
rfemur -47.3532 -9.03833 18.7417
rtibia 36.2185
rfoot -6.53582 -12.7762
rtoes -6.37996
lfemur -49.0888 2.05086 -22.9627
ltibia 36.3496
lfoot -6.1477 -6.09602
ltoes -15.5884
2820
root 0.952438 17.5228 -1.57703 23.0507 9.47354 0.613837
lowerback 13.1952 -1.53287 5.01044
upperback 12.9514 -1.61878 2.37588
thorax 6.36478 -0.504611 -0.156755
lowerneck 14.1748 11.888 -4.32825
upperneck 2.32708 14.6499 -10.2462
head -1.13087 7.52893 -3.35074
rclavicle 1.35174e-014 -2.06736e-014
rhumerus 2.39898 -10.2652 -83.7647
rradius 39.0883
rwrist 25.7597
rhand -4.86645 9.38084
rfingers 7.12502
rthumb 20.9217 -19.5109
lclavicle 1.35174e-014 -2.06736e-014
lhumerus 54.2564 -14.5995 79.1558
lradius 19.5293
lwrist -26.3438
lhand 13.1828 29.9003
lfingers 7.12502
lthumb 38.1385 55.6617
rfemur -47.4151 -8.98971 18.8557
rtibia 36.1994
rfoot -6.53346 -12.7451
rtoes -6.26258
lfemur -49.1765 2.07951 -22.8498
ltibia 36.3894
lfoot -6.1572 -6.04257
ltoes -15.5966
2821
root 0.956991 17.5216 -1.57828 23.1342 9.37251 0.589431
lowerback 12.7388 -1.57218 4.82341
upperback 13.2782 -1.73971 2.56507
thorax 6.98796 -0.575463 0.148774
lowerneck 14.0066 11.9436 -4.67139
upperneck 2.14193 14.6682 -10.3387
head -1.18085 7.54546 -3.32599
rclavicle -7.95139e-016 1.35174e-014
rhumerus 3.06274 -9.89196 -83.6585
rradius 39.0494
rwrist 25.6804
rhand -4.92063 9.2856
rfingers 7.12502
rthumb 20.8697 -19.6119
lclavicle -7.95139e-016 1.35174e-014
lhumerus 54.4655 -14.0465 79.6136
lradius 19.4016
lwrist -26.6626
lhand 13.5304 29.5179
lfingers 7.12502
lthumb 38.4666 55.1886
rfemur -47.5229 -8.99545 18.8952
rtibia 36.1496
rfoot -6.48023 -12.6507
rtoes -6.04226
lfemur -49.2913 2.12948 -22.8648
ltibia 36.4225
lfoot -6.15577 -6.01465
ltoes -15.4862
2822
root 0.962356 17.5206 -1.57834 23.2389 9.19716 0.668986
lowerback 13.2681 -1.62496 4.82157
upperback 13.0174 -1.75797 2.53438
thorax 6.40314 -0.596595 0.128423
lowerneck 13.9687 12.0347 -4.96856
upperneck 2.44288 14.7697 -9.99547
head -1.11558 7.56642 -3.15368
rclavicle 3.97569e-015 2.78299e-015
rhumerus 2.79386 -9.6023 -83.586
rradius 39.1127
rwrist 25.5195
rhand -5.00569 9.27843
rfingers 7.12502
rthumb 20.7879 -19.628
lclavicle 3.97569e-015 2.78299e-015
lhumerus 53.9649 -13.9498 79.7419
lradius 19.3335
lwrist -26.8612
lhand 13.611 29.1689
lfingers 7.12502
lthumb 38.5426 54.8184
rfemur -47.6371 -9.0369 18.8313
rtibia 36.0765
rfoot -6.36066 -12.5141
rtoes -6.19589
lfemur -49.3631 2.19137 -23.007
ltibia 36.4183
lfoot -6.13504 -6.00028
ltoes -15.2261
2823
root 0.967609 17.5223 -1.57827 23.2858 9.05875 0.609451
lowerback 12.7731 -1.66193 4.6571
upperback 13.3533 -1.87667 2.69112
thorax 7.05853 -0.663697 0.385089
lowerneck 13.8543 12.0745 -5.1721
upperneck 2.30225 14.7876 -10.1781
head -1.14303 7.58502 -3.18174
rclavicle -8.74653e-015 -1.74931e-014
rhumerus 3.36539 -9.12658 -83.4707
rradius 39.2858
rwrist 25.3504
rhand -4.89248 9.25179
rfingers 7.12502
rthumb 20.8967 -19.6427
lclavicle -8.74653e-015 -1.74931e-014
lhumerus 54.1879 -13.4957 79.7963
lradius 19.293
lwrist -26.9986
lhand 13.2192 29.1967
lfingers 7.12502
lthumb 38.1729 54.9487
rfemur -47.6831 -8.98492 18.8804
rtibia 35.9973
rfoot -6.26873 -12.4092
rtoes -6.20183
lfemur -49.3863 2.24328 -22.9686
ltibia 36.3833
lfoot -6.09342 -5.92898
ltoes -15.0282
2824
root 0.971779 17.5263 -1.57758 23.3025 8.99606 0.518027
lowerback 13.3109 -1.72642 4.88864
upperback 13.1325 -1.89314 2.66025
thorax 6.51091 -0.663314 0.236382
lowerneck 13.7966 12.1392 -5.26254
upperneck 2.60945 14.8897 -9.90335
head -1.05305 7.6085 -3.06183
rclavicle 2.3059e-014 0
rhumerus 2.99584 -9.05074 -83.5397
rradius 39.655
rwrist 25.3692
rhand -4.82447 9.20523
rfingers 7.12502
rthumb 20.9621 -19.682
lclavicle 2.3059e-014 0
lhumerus 53.768 -13.5628 79.7768
lradius 19.2252
lwrist -26.9521
lhand 12.7615 29.3022
lfingers 7.12502
lthumb 37.7405 55.1716
rfemur -47.6858 -8.88589 18.9417
rtibia 35.9309
rfoot -6.14124 -12.4619
rtoes -7.15168
lfemur -49.3712 2.28687 -22.8899
ltibia 36.3109
lfoot -6.07246 -5.87571
ltoes -15.3283
